<svg xmlns="http://www.w3.org/2000/svg" width="23" height="19.381" viewBox="0 0 23 19.381">
  <g id="shopping-cart_2_" data-name="shopping-cart (2)" transform="translate(0 -40.283)">
    <path id="Контур_12" data-name="Контур 12" d="M22.659,46.787a1.589,1.589,0,0,0-1.25-.6H16.979l-2.4-5.5a.674.674,0,1,0-1.235.539l2.166,4.961H7.492l2.166-4.961a.674.674,0,1,0-1.235-.539l-2.4,5.5H1.592a1.589,1.589,0,0,0-1.25.6,1.552,1.552,0,0,0-.3,1.32L2.405,58.438a1.579,1.579,0,0,0,1.552,1.225H19.043a1.579,1.579,0,0,0,1.552-1.225L22.96,48.106a1.551,1.551,0,0,0-.3-1.32ZM19.043,58.316H3.957a.241.241,0,0,1-.238-.178L1.353,47.806a.206.206,0,0,1,.042-.179.245.245,0,0,1,.2-.092H5.433l-.176.4a.674.674,0,1,0,1.235.539l.412-.943H16.1l.412.943a.674.674,0,0,0,1.235-.539l-.176-.4h3.841a.245.245,0,0,1,.2.092.206.206,0,0,1,.042.179L19.281,58.138a.241.241,0,0,1-.238.178Z" transform="translate(0 0)" fill="#fff"/>
    <path id="Контур_13" data-name="Контур 13" d="M152.008,266.717A1.008,1.008,0,0,0,151,267.725v7.394a1.008,1.008,0,1,0,2.017,0v-7.394A1.008,1.008,0,0,0,152.008,266.717Z" transform="translate(-144.426 -218.688)" fill="#fff"/>
    <path id="Контур_14" data-name="Контур 14" d="M242.008,266.717A1.008,1.008,0,0,0,241,267.725v7.394a1.008,1.008,0,1,0,2.017,0v-7.394A1.008,1.008,0,0,0,242.008,266.717Z" transform="translate(-230.508 -218.688)" fill="#fff"/>
    <path id="Контур_15" data-name="Контур 15" d="M332.008,266.717A1.008,1.008,0,0,0,331,267.725v7.394a1.008,1.008,0,1,0,2.017,0v-7.394A1.008,1.008,0,0,0,332.008,266.717Z" transform="translate(-316.59 -218.688)" fill="#fff"/>
  </g>
</svg>
