<svg id="Group_828" data-name="Group 828" xmlns="http://www.w3.org/2000/svg" width="135.229" height="126.515" viewBox="0 0 135.229 126.515">
  <path id="Path_992" data-name="Path 992" d="M166.09,491.874s6.887,1.271,9.214-.644C175.113,488.949,169.892,489.222,166.09,491.874Z" transform="translate(-156.878 -425.98)"/>
  <path id="Path_993" data-name="Path 993" d="M170.052,496.35s13.562.871,16.827-4.874c-7.505-.018-16.814.516-16.814.516Z" transform="translate(-150.541 -423.118)"/>
  <path id="Path_994" data-name="Path 994" d="M189.623,503.228c3.013-2.358,6-11.059,4.312-12.987s-5.868,1.33-5.838,10.655c-1.8.387-2.74,1.376-2.6,2.1C185.721,504.1,188.033,504.472,189.623,503.228Z" transform="translate(-125.86 -425.945)"/>
  <path id="Path_995" data-name="Path 995" d="M296.757,511.8c-6.314-8.42-16.626-13.8-20.018-15.564l-.33-.175a15.678,15.678,0,0,1-2.106-2.577,46.453,46.453,0,0,0-40.26-20.809h-.99c-.332,0-.619.013-.925.026-.394.013-.773.023-1.134.023a4.018,4.018,0,0,1-3.015-.915c-1.464-1.412-9.657-3.191-14.41-4.124a123,123,0,0,0-18.778-2.505c-2.32,0-3.41.3-3.907,1.116a1.546,1.546,0,0,0-.036,1.546,27.152,27.152,0,0,0,9.376,9.536L187.67,493.87c-1.66.327-2.657.6-2.657.6l1.564,4.956.191-.018c-.064,1.031-.142,2.258-.232,3.8a241.192,241.192,0,0,0-22.386,23.732c-3.387,4.005-.613,6.611,1.067,6.959,4.485.933,12.539,1.884,13.08,1.959a4.446,4.446,0,0,1-1.394,2.856l-.691.536s-.216,3.765,6.907,4.088a105.725,105.725,0,0,0,11.585-1.626c.018.121.348.634.356.773-5.281,1.41-9.368,1.892-11.9,2.848-6.25,2.366-5.121,4.992-5.121,4.992s2.2.039,2.791,1.722c.08.224.451,2.345.536,2.758-4.381,4.992-5.83,8.9-3.987,12.394,3.755,7.858,26.441,4.729,26.441,4.729l2.724,14.137,22.028.041,2.062-8.863,14.34,5.363-.165.188.925.773a49.816,49.816,0,0,0,13.59,8.124l.758-2.175a40.856,40.856,0,0,1-6.719-3.366c8.4-1.464,9.765-5.137,9.987-6.33a3.938,3.938,0,0,0-2.379-4.3c-3.2-1.562-8.817-.43-14.433,5.384l2.577-16.99c5.446.289,10.593.541,15.868-2.577-3.776-1.758-4.776-8.332-8.562-16.2l16.99-30.265a81.494,81.494,0,0,0,8.376.487,54.321,54.321,0,0,0,14.35-1.752l1.637-.443Zm-36.791,65.793a1.734,1.734,0,0,1,1.124,1.8c-.258,1.435-2.82,4.036-10.673,4.817-.732-.515-1.492-1.075-2.258-1.675,4.8-5,9.428-6.106,11.807-4.948Zm-15.722,2.652-15.319-5.766-2.183,9.33-18.206-.031-2.765-14.433s-23,3.057-26.366-3.211c-1.412-2.637,4.446-10.644,4.446-10.644a9.075,9.075,0,0,0-2.887-6.425c.954-2.51,16.1-5,16.1-5l-1.005-4.549s-4.232,1.031-5.9,1.289c-4.732.722-9.392,1.131-11.082-.912a12.961,12.961,0,0,0,1.613-5.721s-10.619-1.583-15-2.5c-.619-.129-1.345-1.51.17-3.147a255.867,255.867,0,0,1,22.59-23.91l.34-.314.026-.461c.111-1.91.209-3.441.284-4.621q1.063-.1,2.021-.2l4.74,3.178-2.255,6.665-5.036,3.371,20.038-1.5,7.753,5.186-.113-.034a53.142,53.142,0,0,1-9.167,20.178c2.459,2.26,0,0,4.039,4.09,7.448-7.626,11.585-14.394,18.724-14.433,6.858-.041,2.616,28.069-7.113,20.639-2.253,7.129-5.655,16.621-5.655,16.621a47.546,47.546,0,0,0,20.5,1.343,38.809,38.809,0,0,1,9.193-.5ZM208.3,510.519l-12.005-1.5.912-5.928Zm15.822,7.791c-9.3-6.186-22.013-14.709-29.456-19.7,8.219-.954,9.59-1.57,18.371-2.691-7.093-3.753-16.183-3.4-22.056-2.577l9.183-12.067a38.753,38.753,0,0,1,4.381,5.214c1.7,2.235,5.046,3.258,7.2,4.956,4.237,3.35,6.67,8.716,11.082,11.58,3.928,2.544,9.216,3.5,13.3,5.8,5.191,2.933,9.407,7.139,15.093,9.34a74.628,74.628,0,0,0,8.216,2.91c2.4.613,4.869.647,7.216,1.116l-11.508,20.492c-4.6-8.451-12.822-17.9-31.018-24.379Zm46.752-3.644.036-.093h.013Zm10.91-1.624A91.6,91.6,0,0,1,270,512.135c-.773-.1-1.443-.191-1.992-.258a63.556,63.556,0,0,1-28.093-8.688,30.014,30.014,0,0,0-7.271-3.309,38.344,38.344,0,0,1-14.273-7.554l-8.317-8.021a65.5,65.5,0,0,1-4.995-6.379l-.137-.219-.217-.129c-7.358-4.6-10.023-7.657-11.4-10.026a11.706,11.706,0,0,1,1.474-.067c8.6.023,29.879,4.552,31.593,5.982a6.246,6.246,0,0,0,4.608,1.562c.41,0,.822-.013,1.216-.026.294-.013.585-.021.879-.023s.644,0,.959,0c23.763.064,33.652,13.446,38.4,19.876a11.464,11.464,0,0,0,2.889,3.237l.335.178A59.277,59.277,0,0,1,293.806,511.8a53.826,53.826,0,0,1-12.015,1.242Z" transform="translate(-162.546 -465.177)"/>
  <path id="Path_996" data-name="Path 996" d="M262.861,511.622a91.631,91.631,0,0,1-11.789-.907c-.773-.1-1.443-.191-1.992-.258a63.553,63.553,0,0,1-28.093-8.688,30.014,30.014,0,0,0-7.271-3.309,38.346,38.346,0,0,1-14.273-7.554l-8.317-8.021a65.485,65.485,0,0,1-4.995-6.379l-.137-.219-.216-.129c-7.358-4.6-10.023-7.657-11.4-10.026a11.683,11.683,0,0,1,1.474-.067c8.6.023,29.879,4.552,31.593,5.982a6.245,6.245,0,0,0,4.608,1.583c.41,0,.822-.013,1.216-.026.294-.013.585-.021.879-.023s.644,0,.959,0c23.763.064,33.652,13.446,38.4,19.876a11.465,11.465,0,0,0,2.889,3.237l.335.178A59.277,59.277,0,0,1,274.879,510.4,53.813,53.813,0,0,1,262.861,511.622Z" transform="translate(-143.616 -463.757)" fill="#fff"/>
</svg>
