<svg xmlns="http://www.w3.org/2000/svg" xmlns:xlink="http://www.w3.org/1999/xlink" width="412.041" height="80.905" viewBox="0 0 412.041 80.905">
  <defs>
    <clipPath id="clip-path">
      <path id="Path_997" data-name="Path 997" d="M259.874,478.035l40.777.524.382-2.34,42.511-.234-4.285,3.079,4.269,2.637-39.7-.087-.4,2.294-46.478-.478Z" transform="translate(-256.947 -475.985)" fill="none"/>
    </clipPath>
  </defs>
  <g id="Group_1767" data-name="Group 1767" transform="translate(17663 22751.004)">
    <g id="Group_825" data-name="Group 825" transform="translate(-17507.02 -22741.313)">
      <g id="Group_824" data-name="Group 824" transform="translate(0 0)">
        <path id="Path_987" data-name="Path 987" d="M209.986,519.711a29.86,29.86,0,0,1-12.493-.73c.494-1.384,2.1-5.951,3.3-9.693a3.01,3.01,0,0,0,3.53-.021c2.789-1.966,4.079-8.768,2.967-12.221-.537-1.678-1.475-2.031-2.171-2.031H205.1c-3.751.026-6.251,2.79-9.418,6.291-.806.893-1.638,1.813-2.558,2.764-1.022-1.043-1.241-1.3-1.353-1.424a6.977,6.977,0,0,0-.677-.659,34.387,34.387,0,0,0,5.628-12.328l2.029.524-7.115-4.753-7.769-5.2-3.42-2.294-1.79.18-.021.351c-.049.755-.11,1.734-.181,2.957l-.008.13-.094.086a159.165,159.165,0,0,0-13.788,14.538c-.33.392-.552.659-.659.781a1.978,1.978,0,0,0-.616,1.965,1.042,1.042,0,0,0,.727.74c2.4.494,7.746,1.318,9.23,1.544a6.7,6.7,0,0,1-.883,3.018l-.257.267.237.285c1.145,1.376,3.819,1.29,7.474.728.824-.127,2.593-.536,3.4-.727l.457,2.072c-2.719.463-9.574,1.783-10.182,3.385l-.117.3.267.185a5.212,5.212,0,0,1,1.656,3.646c-.808,1.122-3.722,5.373-2.782,7.125,2.082,3.88,14.472,2.6,16.892,2.317l1.76,9.185,12.317.02,1.361-5.828,9.833,3.7,1.754-11.479-.463-.02a25.137,25.137,0,0,0-5.983.323Z" transform="translate(-163.234 -466.425)" fill="#fff"/>
        <path id="Path_988" data-name="Path 988" d="M222.328,497.365c-.659-.133-1.353-.213-2.017-.288a20.1,20.1,0,0,1-2.574-.415,37.047,37.047,0,0,1-4.231-1.465l-.974-.382a26.889,26.889,0,0,1-5.851-3.461,43.129,43.129,0,0,0-3.748-2.472,26.738,26.738,0,0,0-4-1.7,22.2,22.2,0,0,1-4.478-2,16.6,16.6,0,0,1-3.728-3.8A21.229,21.229,0,0,0,187.4,477.8a13.688,13.688,0,0,0-1.89-1.172,8.264,8.264,0,0,1-2.637-1.923l-.3-.4a21.839,21.839,0,0,0-2.558-2.993l-.33-.3-6.757,8.879,1-.137a25.478,25.478,0,0,1,12.58,1.017c-1.867.257-3.143.468-4.386.677-1.648.275-3.2.537-5.933.854l-1.121.13.936.628c4.758,3.192,12.89,8.638,18.837,12.6l.091.046c9.5,3.385,15.737,8.275,19.613,15.389l.359.659,8.008-14.26Z" transform="translate(-156.815 -471.009)" fill="#fff"/>
      </g>
    </g>
    <g id="Group_826" data-name="Group 826" transform="translate(-17663 -22725.01)">
      <path id="Path_989" data-name="Path 989" d="M69.393,514.214l.084-31.468h0l.01-3.913,27.781.073-.012,3.916h0l-.089,31.468-10.774-.03.087-31.468-6.228-.017-.086,31.47Zm32.5-35.287-.1,35.659,10.86.033,6.337-20.869-.058,20.884,10.86.028.1-35.659-10.858-.03-6.337,21.08.059-21.1Zm76.586.211-.087,31.44,6.276.018.089-31.44,10.856.028-.087,32.518,1.464.018,13.94-32.5h.147l10.685.026-.087,35.1-10.683-.03.02-8.308-7.336-.02-2.408,5.783h.008l-.1.227-1.195,2.869h-.1l-2.263,5.012-3.992-5.038-8.964-.021h0l-6.276-.018h0l-10.86-.033.1-35.661ZM205.291,502.1l5.726.018.035-13.844Zm-70.836-23.084-.1,35.659h.842l8.6.023h1.421l6.275.016h0l3.309.008,4.44.011,3.99,5.042,3.664-8.109-4.532-.056.089-32.53-10.863-.028L151.5,510.5l-6.275-.017.089-31.443Z" transform="translate(-69.393 -478.833)"/>
    </g>
    <g id="Group_827" data-name="Group 827" transform="translate(-17427.754 -22736.975)">
      <path id="Path_990" data-name="Path 990" d="M315.447,480.561a6.279,6.279,0,1,0,6.845,6.253A6.574,6.574,0,0,0,315.447,480.561Zm0,11.257a5.009,5.009,0,1,1,5.261-5A5.155,5.155,0,0,1,315.447,491.818Zm1.623-4.9v-.031a1.39,1.39,0,0,0,1.154-1.429c0-.392,0-1.821-2.288-1.821h-2.991v6.253h1.564v-2.429h.45c1.426,0,1.483.518,1.5,1,.039.964-.018,1.126.254,1.429h1.6c-.274-.341-.216-.519-.274-1.483-.043-.6-.1-1.33-.982-1.488Zm-1.388-.572h-1.173v-1.6h1.035c.236,0,1.1.018,1.1.8,0,.368-.2.8-.962.8Z" transform="translate(-145.497 -469.028)"/>
      <path id="Path_991" data-name="Path 991" d="M364.839,495.689c-7.791-.607-12.691,11.156-10,19.42-4.717,2.985-7.369-.511-6.171-20.234-3.791.147-15.5-.041-15.5-.041s.659,22.557-5.063,22.135c-.908-.064-2-1.455-2.307-3.9l.01-2.912a29.242,29.242,0,0,1-10.36-.422c.42-5.98-1.777-12.185-5.9-13.879-10.828-4.45-18.2,7.5-15.353,17.8-3.778,3.964-9.559,4.78-9.23-2.523.237-5.274,5.014-16.267,5.014-16.267l-6.184-.824s-.686,1.154-1.556,3.011a5.847,5.847,0,0,0-1.709-1.454c-12.117-6.476-21.236,9.741-19.087,19.791-1.213.837-3.049,2.339-5.5.93-3.356-1.93-2-21.962-1.007-34.193,3.382.145,6.893.262,10.489.312v2.352l10.6.107,3.692-5.416-10.932-.138-.016-1.93s-21.02-.7-32.559-.8c-24.353-.2-26.689,7.825-24.1,14.982a9.378,9.378,0,0,0,9.065,5.525c-.046,12.116-.021,22.237-3.791,20.617-.923-.391-1.03-2.659-.789-5.136h-5.571c-.849,8.57,4.012,10.713,6.352,10.724h.857c11.511.031,8.663-22.3,9.544-41.832a177.222,177.222,0,0,1,20.783.33c-.933,13.465-2.3,33.972,2.726,38.669,2.69,2.518,8.366,2.886,12.589-.33a7.782,7.782,0,0,0,2.621,1.773c4.674,1.915,9.559-.646,13.02-5.323,2.706,6.878,10.675,8.519,17.327,2.326a10.241,10.241,0,0,0,10.987,2.774,10.9,10.9,0,0,0,6.428-6.593,29.3,29.3,0,0,0,5.645.509c1.6,7.029,6.83,7.118,6.856,7.118,8.158.19,11.732-5.5,12.757-23.239l2.443.038c.114,9.394.732,17.658,4.269,20.8,3.342,2.975,8.119,2.566,11.649-.356a10.307,10.307,0,0,0,2.868,1.866C372.989,527.231,379.531,496.838,364.839,495.689ZM221.209,491.9a3.791,3.791,0,0,1-4.063-2.637c-.386-3.374,1.216-5.394,4.341-6.558-.168,3-.242,6.113-.279,9.188Zm48.1,12.3c2.637-7.224,11.435-5.8,9.124,2.095-4.453,15.211-15.125,14.314-9.124-2.1Zm40.788,3.461a14.5,14.5,0,0,1-7-8.7,3.037,3.037,0,0,1,1.483-.277c2.9.193,5.126,4.5,5.525,8.974Zm-5.274,9.928c-5.07,1.145-6.533-7.189-5.124-13.162a19.34,19.34,0,0,0,9.619,9.21,6.3,6.3,0,0,1-4.5,3.954Zm56.761-1.76c-3.585-2.906-2-16.44,3.112-14.723,4.312,1.442,1.337,18.319-3.117,14.72Zm-70.961-41.039-8.976,16.546-7.872-1.165,11.277-16.552Z" transform="translate(-210.92 -473.62)"/>
    </g>
    <g id="Group_828" data-name="Group 828" transform="translate(-17508.164 -22751.004)">
      <path id="Path_992" data-name="Path 992" d="M166.09,491.085s4.4.813,5.892-.412C171.86,489.215,168.521,489.389,166.09,491.085Z" transform="translate(-160.199 -448.947)"/>
      <path id="Path_993" data-name="Path 993" d="M170.052,494.593s8.673.557,10.761-3.117c-4.8-.011-10.753.33-10.753.33Z" transform="translate(-157.575 -447.762)"/>
      <path id="Path_994" data-name="Path 994" d="M188.132,498.354c1.927-1.508,3.837-7.072,2.757-8.305s-3.753.85-3.733,6.813c-1.154.247-1.752.88-1.661,1.343C185.636,498.913,187.115,499.15,188.132,498.354Z" transform="translate(-147.356 -448.932)"/>
      <path id="Path_995" data-name="Path 995" d="M248.372,494.99c-4.038-5.385-10.632-8.824-12.8-9.953l-.211-.112a10.025,10.025,0,0,1-1.347-1.648,29.706,29.706,0,0,0-25.746-13.307h-.633c-.213,0-.4.008-.592.017-.252.008-.494.015-.725.015a2.569,2.569,0,0,1-1.928-.585c-.936-.9-6.176-2.04-9.215-2.637a78.657,78.657,0,0,0-12.008-1.6c-1.483,0-2.181.195-2.5.714a.989.989,0,0,0-.023.989,17.363,17.363,0,0,0,6,6.1l-8.028,10.548c-1.061.209-1.7.386-1.7.386l1,3.169.122-.012c-.041.659-.091,1.444-.148,2.429a154.241,154.241,0,0,0-14.316,15.176c-2.166,2.561-.392,4.228.682,4.45,2.868.6,8.018,1.2,8.364,1.253a2.843,2.843,0,0,1-.892,1.826l-.442.343s-.138,2.408,4.417,2.614a67.614,67.614,0,0,0,7.408-1.04c.012.077.223.405.227.494-3.377.9-5.991,1.21-7.609,1.821-4,1.513-3.275,3.193-3.275,3.193s1.409.025,1.785,1.1c.051.143.288,1.5.343,1.764-2.8,3.192-3.728,5.691-2.55,7.926,2.4,5.025,16.908,3.024,16.908,3.024l1.742,9.04,14.087.026,1.319-5.668,9.17,3.43-.105.12.592.495a31.856,31.856,0,0,0,8.691,5.195l.485-1.391a26.127,26.127,0,0,1-4.3-2.153c5.37-.936,6.245-3.285,6.387-4.048a2.518,2.518,0,0,0-1.521-2.747c-2.047-1-5.638-.275-9.23,3.443l1.648-10.865c3.483.185,6.774.346,10.148-1.648-2.415-1.124-3.054-5.328-5.475-10.36l10.865-19.354a52.113,52.113,0,0,0,5.357.312,34.738,34.738,0,0,0,9.177-1.121l1.047-.284Zm-23.527,42.074a1.109,1.109,0,0,1,.719,1.154c-.165.918-1.8,2.581-6.825,3.08-.468-.33-.954-.687-1.444-1.071,3.072-3.2,6.029-3.9,7.55-3.164Zm-10.054,1.7-9.8-3.687-1.4,5.966-11.643-.02-1.768-9.23s-14.711,1.955-16.861-2.054c-.9-1.686,2.843-6.807,2.843-6.807a5.8,5.8,0,0,0-1.846-4.109c.61-1.605,10.3-3.2,10.3-3.2l-.643-2.909s-2.706.659-3.774.824c-3.026.461-6.006.724-7.087-.583a8.289,8.289,0,0,0,1.032-3.659s-6.79-1.012-9.592-1.6c-.4-.082-.86-.966.109-2.012A163.628,163.628,0,0,1,179.11,490.4l.218-.2.016-.3c.071-1.221.134-2.2.181-2.955q.68-.064,1.292-.13l3.031,2.032-1.442,4.262-3.22,2.156L192,494.308l4.958,3.316-.073-.021a33.984,33.984,0,0,1-5.862,12.9c1.572,1.445,0,0,2.583,2.616,4.763-4.877,7.408-9.2,11.974-9.23,4.386-.026,1.673,17.95-4.549,13.2-1.44,4.559-3.616,10.629-3.616,10.629a30.406,30.406,0,0,0,13.111.859,24.817,24.817,0,0,1,5.879-.322Zm-22.983-44.587-7.677-.959.583-3.791Zm10.118,4.982c-5.947-3.956-14.077-9.406-18.837-12.6,5.256-.61,6.133-1,11.748-1.721-4.536-2.4-10.349-2.172-14.1-1.648l5.872-7.717a24.783,24.783,0,0,1,2.8,3.334c1.086,1.429,3.227,2.083,4.6,3.169,2.71,2.143,4.265,5.574,7.087,7.405,2.512,1.627,5.894,2.24,8.5,3.712,3.319,1.876,6.016,4.565,9.652,5.973a47.734,47.734,0,0,0,5.254,1.861c1.533.392,3.113.414,4.615.714l-7.359,13.1c-2.939-5.4-8.2-11.445-19.836-15.59Zm29.9-2.33.023-.059h.008Zm6.977-1.038a58.575,58.575,0,0,1-7.539-.58c-.494-.064-.923-.122-1.274-.165a40.643,40.643,0,0,1-17.965-5.556,19.194,19.194,0,0,0-4.649-2.116,24.52,24.52,0,0,1-9.127-4.831l-5.319-5.129a41.886,41.886,0,0,1-3.194-4.079l-.087-.14-.138-.082c-4.705-2.939-6.41-4.9-7.288-6.411a7.482,7.482,0,0,1,.943-.043c5.5.015,19.107,2.911,20.2,3.825a3.994,3.994,0,0,0,2.947,1c.262,0,.526-.008.778-.016.188-.008.374-.013.562-.015s.412,0,.613,0c15.2.041,21.52,8.6,24.557,12.711a7.331,7.331,0,0,0,1.848,2.07l.214.114a37.907,37.907,0,0,1,11.6,8.651,34.422,34.422,0,0,1-7.684.794Z" transform="translate(-162.546 -465.177)"/>
      <path id="Path_996" data-name="Path 996" d="M230.963,495.2a58.6,58.6,0,0,1-7.539-.58c-.494-.064-.923-.122-1.274-.165a40.642,40.642,0,0,1-17.965-5.556,19.194,19.194,0,0,0-4.649-2.116,24.522,24.522,0,0,1-9.127-4.831l-5.319-5.129a41.882,41.882,0,0,1-3.194-4.079l-.087-.14-.138-.082c-4.705-2.939-6.41-4.9-7.288-6.411a7.471,7.471,0,0,1,.943-.043c5.5.015,19.107,2.911,20.2,3.825a3.994,3.994,0,0,0,2.947,1.012c.262,0,.526-.008.778-.017.188-.008.374-.013.562-.015s.412,0,.613,0c15.2.041,21.52,8.6,24.557,12.711a7.332,7.332,0,0,0,1.848,2.07l.214.114a37.907,37.907,0,0,1,11.6,8.651A34.411,34.411,0,0,1,230.963,495.2Z" transform="translate(-154.708 -464.589)" fill="#fff"/>
    </g>
    <g id="Group_830" data-name="Group 830" transform="translate(-17351.248 -22733.041)">
      <g id="Group_829" data-name="Group 829" transform="translate(0)" clip-path="url(#clip-path)">
        <rect id="Rectangle_702" data-name="Rectangle 702" width="29.909" height="17.594" transform="translate(-2.177 -6.919)" fill="#2b7729"/>
        <rect id="Rectangle_703" data-name="Rectangle 703" width="29.909" height="17.594" transform="translate(27.732 -6.919)" fill="#fff"/>
        <rect id="Rectangle_704" data-name="Rectangle 704" width="29.909" height="17.594" transform="translate(57.643 -6.919)" fill="#d9000d"/>
      </g>
    </g>
    <path id="Path_998" data-name="Path 998" d="M304.681,485.084l-48.571-.494,3.827-7.052,40.564.521.381-2.327,45.819-.251-5.385,3.872,5.706,3.532-41.936-.092ZM258.9,482.953l44.4.455.4-2.289,37.467.082-2.831-1.754,3.174-2.284-39.206.216-.386,2.354-40.99-.527Z" transform="translate(-17608.748 -23209.363)"/>
  </g>
</svg>
